<svg width="65" height="4" viewBox="0 0 65 4" fill="none" xmlns="http://www.w3.org/2000/svg">
<path fill-rule="evenodd" clip-rule="evenodd" d="M53.4428 1.26953C54.1525 1.42148 54.8186 1.64146 55.4193 1.94989C55.4847 1.98391 55.5046 2.03152 55.5105 2.05194C55.5204 2.08822 55.5165 2.12226 55.5006 2.15401C55.4907 2.17442 55.4748 2.19937 55.4411 2.21524C55.4173 2.22658 55.3559 2.23564 55.2746 2.23338C55.1358 2.23111 54.9217 2.21297 54.8186 2.21297C54.4658 2.21751 54.1129 2.21522 53.76 2.22203C52.636 2.2447 52.4397 2.26285 50.9945 2.24924C49.3075 2.23336 47.6164 2.20615 45.9274 2.16533C51.2958 2.50551 56.6564 2.90239 61.9891 3.27205C62.0486 3.27658 62.0942 3.33557 62.0902 3.4036C62.0882 3.4739 62.0347 3.52607 61.9752 3.52153C49.5315 2.65975 36.9509 1.64373 24.412 1.57796C23.7935 1.59384 23.177 1.6097 22.5624 1.62558C18.8493 1.72536 15.1343 1.84557 11.4251 2.03153C10.2178 2.09277 9.01051 2.1608 7.80122 2.2243C7.44439 2.24244 7.08556 2.26058 6.72674 2.27872C6.4373 2.29233 5.6919 2.34223 5.58684 2.3445C5.49168 2.34677 5.46789 2.24926 5.46591 2.24473C5.45996 2.21298 5.46392 2.17667 5.48771 2.14266C5.49366 2.13358 5.50953 2.10865 5.54521 2.09731C5.55116 2.09731 5.57891 2.09276 5.6364 2.08596C8.61798 1.80701 11.6075 1.61424 14.6029 1.49178C14.2005 1.49632 13.7981 1.49859 13.3957 1.50313C10.2931 1.53034 7.1827 1.62786 4.08217 1.50313C3.37643 1.47592 2.66869 1.44415 1.96492 1.4056C1.49112 1.38065 0.27194 1.41241 0.0994685 1.35344C0.0201711 1.3285 0.00232917 1.26499 0.000346735 1.23324C-0.0016357 1.19695 0.00430192 1.15613 0.0399858 1.11985C0.0558452 1.1017 0.105416 1.07224 0.19859 1.04956C3.24163 0.294359 6.80207 0.507523 9.90062 0.296612C18.3161 -0.281693 26.7018 0.10386 35.1152 0.455379C42.3769 0.759273 49.6385 0.775143 56.8962 1.18789C59.5527 1.33757 62.2924 1.16523 64.9112 1.73673C64.9707 1.75033 65.0084 1.81381 64.9985 1.88185C64.9866 1.94988 64.9291 1.99525 64.8696 1.98165C62.2627 1.41241 59.5329 1.58703 56.8863 1.43735C55.7385 1.37159 54.5907 1.31716 53.4428 1.26953ZM30.9917 1.43735C35.4384 1.35798 39.8849 1.31715 44.3355 1.34209C47.3885 1.35797 51.837 0.69351 54.8702 1.96351C54.8484 1.96351 54.8305 1.96351 54.8147 1.96351C54.4618 1.96805 54.1089 1.96349 53.756 1.97257C52.634 1.99524 52.4377 2.01339 50.9965 1.99978C47.3112 1.96349 43.6159 1.87279 39.9325 1.73219C36.949 1.61879 33.9694 1.51673 30.9917 1.43735ZM0.912262 1.14479C3.78878 0.568753 7.04989 0.741135 9.91451 0.546099C18.322 -0.0322062 26.7018 0.353319 35.1073 0.704838C38.864 0.863589 42.6187 0.942959 46.3715 1.04048C45.6518 1.07223 44.9639 1.0949 44.3355 1.09263C37.9739 1.05635 31.6142 1.15388 25.2526 1.3081C21.3016 1.24006 17.3506 1.21512 13.3937 1.2514C10.2931 1.28088 7.18866 1.37614 4.08813 1.25367C3.38436 1.22646 2.67861 1.19469 1.97484 1.15614C1.73497 1.1448 1.30082 1.14706 0.912262 1.14479Z" fill="#FEFEFE"/>
</svg>
