<svg width="50" height="4" viewBox="0 0 50 4" fill="none" xmlns="http://www.w3.org/2000/svg">
<path fill-rule="evenodd" clip-rule="evenodd" d="M20.8958 0.325833C18.5844 0.437493 16.3001 0.57479 14.0725 0.724891C10.9192 0.937228 7.76703 1.15689 4.63389 1.50468C3.64764 1.61451 2.6461 1.68407 1.66603 1.82135C1.0508 1.90739 0.235015 2.03001 0.127954 2.05564C0.0719569 2.07028 0.0475272 2.09227 0.0396333 2.09959C-0.0158707 2.15085 -0.00574322 2.20025 0.0255857 2.23869C0.0381666 2.25516 0.0699799 2.29545 0.158293 2.30094C6.06441 2.67619 12.1037 1.944 18.017 1.86712C28.2717 1.73532 38.8372 2.25884 49.0104 3.40107C49.0992 3.41022 49.1856 3.36445 49.1979 3.29672C49.2127 3.23082 49.1486 3.16675 49.0598 3.1576C38.8692 2.01354 28.2865 1.48819 18.0121 1.62181C12.5011 1.6932 6.88143 2.33572 1.36285 2.11606C1.48965 2.09776 1.61398 2.07944 1.72746 2.06297C2.70359 1.92568 3.70093 1.85796 4.68323 1.74813C7.80971 1.40034 10.9554 1.18068 14.1046 0.97017C18.0121 0.706579 22.0898 0.479596 26.1995 0.373428C27.6698 0.389902 29.1351 0.406384 30.6004 0.426519C33.7703 0.470451 36.955 0.598587 40.1175 0.770653C41.0697 0.823737 42.0219 0.878648 42.9741 0.92624C43.2898 0.942715 44.1039 0.9903 44.2174 0.986639C44.358 0.982978 44.3851 0.895122 44.3876 0.880478C44.395 0.847529 44.39 0.801764 44.3209 0.763324C44.3135 0.757832 44.2691 0.739516 44.1705 0.728533C38.4203 0.0805381 32.2803 -0.027444 26.2045 0.128148C19.7956 0.0604197 13.3621 0.0311184 6.9695 0C6.87798 0 6.80323 0.0549228 6.80249 0.122651C6.802 0.190379 6.87575 0.245304 6.96727 0.247134C11.5961 0.2691 16.2483 0.291054 20.8958 0.325833Z" fill="#FEFEFE"/>
</svg>
