<svg width="126" height="7" viewBox="0 0 126 7" fill="none" xmlns="http://www.w3.org/2000/svg">
<path fill-rule="evenodd" clip-rule="evenodd" d="M22.4032 2.45286C21.0274 2.74644 19.7362 3.17146 18.5719 3.76738C18.445 3.8331 18.4066 3.9251 18.395 3.96453C18.3758 4.03464 18.3835 4.1004 18.4143 4.16174C18.4335 4.20118 18.4643 4.24939 18.5296 4.28006C18.5757 4.30197 18.6948 4.31948 18.8524 4.31509C19.1214 4.31071 19.5364 4.27567 19.7363 4.27567C20.4203 4.28444 21.1043 4.28002 21.7883 4.29316C23.9672 4.33698 24.3477 4.37203 27.1491 4.34574C30.4194 4.31507 33.6974 4.26249 36.9715 4.18362C26.565 4.84088 16.1739 5.60768 5.83656 6.32191C5.72128 6.33067 5.63289 6.44463 5.64057 6.57608C5.64442 6.71191 5.74816 6.8127 5.86344 6.80394C29.9852 5.13888 54.3721 3.17584 78.6782 3.04877C79.8772 3.07944 81.0723 3.1101 82.2636 3.14077C89.4613 3.33356 96.6628 3.56581 103.853 3.92511C106.193 4.04342 108.533 4.17486 110.878 4.29755C111.569 4.3326 112.265 4.36765 112.961 4.40271C113.522 4.429 114.966 4.52541 115.17 4.52979C115.355 4.53418 115.401 4.34579 115.405 4.33702C115.416 4.27568 115.408 4.20554 115.362 4.13981C115.351 4.12229 115.32 4.07411 115.251 4.0522C115.239 4.0522 115.186 4.04342 115.074 4.03027C109.294 3.49132 103.499 3.11887 97.6928 2.88226C98.4729 2.89102 99.253 2.89543 100.033 2.90419C106.047 2.95677 112.077 3.14519 118.087 2.90419C119.455 2.85161 120.827 2.79024 122.191 2.71575C123.11 2.66755 125.473 2.72891 125.807 2.61498C125.961 2.56678 125.995 2.44408 125.999 2.38274C126.003 2.31263 125.992 2.23376 125.923 2.16365C125.892 2.1286 125.796 2.07166 125.615 2.02785C119.716 0.56873 112.814 0.980583 106.808 0.573082C90.4951 -0.544258 74.2397 0.200667 57.9305 0.879835C43.8541 1.46699 29.7776 1.49765 15.7089 2.29512C10.5594 2.58432 5.24861 2.25133 0.172171 3.35552C0.0568851 3.38181 -0.0161539 3.50445 0.00306046 3.63591C0.0261177 3.76736 0.13757 3.85502 0.252857 3.82873C5.30623 2.72892 10.5979 3.0663 15.7281 2.7771C17.9531 2.65003 20.1782 2.54488 22.4032 2.45286ZM65.9237 2.7771C57.3042 2.62374 48.6846 2.54485 40.0574 2.59305C34.1393 2.62372 25.5159 1.33993 19.6363 3.79369C19.6786 3.79369 19.7132 3.79369 19.7439 3.79369C20.4279 3.80246 21.112 3.79366 21.796 3.81118C23.9711 3.855 24.3515 3.89005 27.1453 3.86376C34.2892 3.79366 41.4523 3.61842 48.5924 3.34675C54.3759 3.12766 60.1517 2.93046 65.9237 2.7771ZM124.232 2.21184C118.656 1.09889 112.334 1.43194 106.781 1.05511C90.4835 -0.0622255 74.2397 0.682647 57.9459 1.36181C50.6637 1.66854 43.3853 1.82189 36.1107 2.0103C37.5057 2.07165 38.8392 2.11545 40.0574 2.11107C52.3891 2.04096 64.717 2.22941 77.0488 2.52737C84.7077 2.39592 92.3665 2.34772 100.037 2.41783C106.047 2.47479 112.065 2.65882 118.075 2.42221C119.44 2.36963 120.808 2.30826 122.172 2.23377C122.637 2.21187 123.478 2.21623 124.232 2.21184Z" fill="#FEFEFE"/>
</svg>
