<svg width="68" height="6" viewBox="0 0 68 6" fill="none" xmlns="http://www.w3.org/2000/svg">
<path fill-rule="evenodd" clip-rule="evenodd" d="M1.51945 3.06317C1.07117 3.05463 0.623563 3.04327 0.176074 3.02974C0.0886457 3.02704 0.0158134 3.10543 0.0135147 3.20477C0.0112161 3.30411 0.0803308 3.38696 0.167759 3.38966C0.570574 3.40141 0.97347 3.41172 1.37613 3.42057C1.39859 3.43805 1.44371 3.46365 1.521 3.4786C3.92933 3.92701 6.5326 3.5877 8.99556 3.39689C11.3045 3.34062 13.6146 3.24548 15.9253 3.12949C15.65 3.15939 15.3747 3.18857 15.0993 3.21629C15.042 3.22226 14.8936 3.23823 14.8732 3.24397C14.7565 3.27954 14.7533 3.39322 14.7538 3.4221C14.754 3.43653 14.7631 3.59582 14.9208 3.60071C16.6152 3.65153 18.3094 3.48027 19.9962 3.32505C20.6237 3.2672 21.2505 3.20785 21.8777 3.14709C22.0958 3.12533 22.6634 3.09488 22.7417 3.07817C22.8258 3.05973 22.8585 2.99937 22.8711 2.95268C24.232 2.85904 25.5943 2.77704 26.957 2.70587C27.2238 2.70565 27.4902 2.70611 27.7566 2.70658C30.6602 2.71483 33.563 2.73528 36.4664 2.72909C34.8488 2.8136 33.2272 2.90503 31.6121 3.03153C31.2812 3.05742 30.951 3.09345 30.6203 3.12223C30.4396 3.13732 29.9724 3.14471 29.9066 3.16881C29.8086 3.20572 29.7931 3.29114 29.7905 3.33349C29.789 3.35934 29.7963 3.50334 29.961 3.53902C33.0164 4.20354 36.134 4.34475 39.2328 4.52786C40.048 4.57584 40.863 4.62741 41.6776 4.68184C39.7309 4.71953 37.7648 4.63902 35.8215 4.58538C35.8039 4.56681 35.7786 4.54913 35.7423 4.53714C35.689 4.51888 35.524 4.49543 35.2233 4.47013C35.1585 4.46474 35.0999 4.50449 35.0714 4.56589C34.6097 4.55566 34.1492 4.54769 33.6908 4.5442C32.1898 4.53256 30.6888 4.58148 29.188 4.57779L28.8483 4.57348L28.7775 4.5727C28.5173 4.56764 28.1991 4.55983 27.9876 4.55467C27.8656 4.55092 27.5481 4.54965 27.5042 4.55081C27.3718 4.55568 27.3491 4.69464 27.3482 4.70107C27.3477 4.70463 27.3495 4.90738 27.5307 4.91251C27.6519 4.91621 28.1096 4.92327 28.7513 4.93205C28.9125 4.93503 29.0539 4.93729 29.1383 4.93761L29.2031 4.93796C31.2549 4.96264 34.5429 4.98851 35.4739 4.93597C38.5027 5.01309 41.5932 5.17687 44.5844 4.87995C44.6825 4.86973 44.7255 4.8339 44.734 4.82586C44.7803 4.77945 44.7901 4.72679 44.7882 4.68123C44.7871 4.65231 44.7743 4.5353 44.6502 4.50832C44.5629 4.48905 43.9341 4.47543 43.6921 4.45869C42.2115 4.35623 40.7306 4.25591 39.2492 4.16853C36.5779 4.01048 33.8924 3.88529 31.245 3.42468C31.3746 3.41239 31.5042 3.40084 31.6339 3.39073C33.2716 3.26225 34.9159 3.16957 36.5557 3.08451C41.6482 2.82017 46.859 3.17437 51.9282 2.68483C52.0321 2.67501 52.0785 2.63943 52.0875 2.63143C52.1366 2.5845 52.1463 2.52967 52.1443 2.48338C52.1432 2.45518 52.1293 2.33665 52.0028 2.31022C51.8985 2.28828 51.1467 2.27517 50.8573 2.25718C49.7016 2.18536 48.5451 2.11276 47.3882 2.07186C45.4787 2.0048 43.565 1.96483 41.6517 1.95518C41.4884 1.91312 41.3192 1.87425 41.1444 1.83857C42.4346 1.81337 43.7241 1.80038 45.0132 1.80394C50.2971 1.81658 55.5796 1.92647 60.8613 2.08027C63.0487 2.14431 65.2672 2.34685 67.4555 2.30567C67.5331 2.30406 67.7048 2.32222 67.7894 2.32039C67.8377 2.31955 67.8731 2.30984 67.8901 2.30241C67.9605 2.26999 67.9834 2.2118 67.991 2.1662C67.9975 2.13062 68.0097 2.01398 67.8793 1.94833C65.0767 0.536304 60.6246 1.00545 57.7088 0.862206C45.8025 0.277481 33.8879 0.628786 21.9924 1.34414C17.2364 1.62986 12.4924 1.92004 7.74613 2.37663C6.06181 2.53852 4.37529 2.66925 2.69956 2.9255C2.48084 2.95947 2.01842 2.99389 1.72216 3.03021C1.64241 3.04032 1.57298 3.05189 1.51945 3.06317ZM66.985 1.95088C64.2191 0.961147 60.3246 1.35082 57.6951 1.22174C45.7991 0.637749 33.8946 0.988341 22.0092 1.70298C17.2566 1.98895 12.5159 2.27867 7.77293 2.73549C6.56636 2.85108 5.35855 2.95142 4.15459 3.09316C5.76244 3.09664 7.37091 3.07638 8.98168 3.03754C9.31688 3.01124 9.64978 2.98765 9.97919 2.96959C14.025 2.74585 18.0799 2.52854 22.1347 2.41937C23.4759 2.33801 24.8173 2.25448 26.1597 2.17176C28.7582 1.90997 32.3054 1.53924 35.5688 1.4761C36.6913 1.45467 37.7805 1.46977 38.7867 1.53873C40.864 1.47441 42.9394 1.43878 45.0137 1.44419C50.3002 1.45629 55.5852 1.56708 60.8698 1.7211C62.8976 1.7801 64.9516 1.95925 66.985 1.95088ZM41.6201 2.31486C40.3942 2.30937 39.1686 2.31687 37.9448 2.33748C37.4001 2.34722 36.8553 2.35769 36.3103 2.36958C36.6079 2.36941 36.9055 2.36852 37.203 2.36691C38.5996 2.36165 39.9996 2.35878 41.3962 2.32323C41.4656 2.32103 41.5586 2.32341 41.6628 2.32661L41.622 2.31572L41.6201 2.31486ZM49.172 2.51559C48.5744 2.48259 47.9765 2.45246 47.3785 2.43168C45.8264 2.37742 44.2717 2.34027 42.7166 2.32328C42.7538 2.35048 42.7736 2.37643 42.7826 2.39295C42.8091 2.43956 42.8133 2.48528 42.8072 2.52666C42.8035 2.55235 42.795 2.58276 42.7758 2.61166C44.9116 2.60996 47.05 2.61347 49.172 2.51559ZM39.5159 1.95834C39.2818 1.93496 39.0419 1.91477 38.797 1.89783C37.5826 1.9357 36.3681 1.98222 35.1549 2.03604C36.0828 2.01356 37.0115 1.99401 37.9398 1.97805C38.465 1.96906 38.9904 1.96226 39.5159 1.95834Z" fill="#FEFEFE"/>
</svg>
