<svg width="134" height="13" viewBox="0 0 134 13" fill="none" xmlns="http://www.w3.org/2000/svg">
<path fill-rule="evenodd" clip-rule="evenodd" d="M49.6241 5.13481C48.8083 5.33304 47.9973 5.54347 47.191 5.76703C46.8976 5.84829 46.7182 6.18405 46.7895 6.51655L46.7933 6.52964C42.4267 6.61533 38.0611 6.74831 33.6975 6.92982C27.394 7.19229 21.0506 7.62443 14.7686 8.29594C8.56061 8.9595 6.84551 9.13015 1.50443 10.24C1.35168 10.2718 1.05702 10.2698 0.898494 10.3201C0.747744 10.3678 0.63983 10.4511 0.570531 10.5326C0.481765 10.6359 0.430712 10.7548 0.409084 10.885C0.386203 11.0269 0.393018 11.2002 0.50032 11.3938C0.803031 11.9373 1.2924 12.0866 1.88926 11.9719C2.40281 11.8732 3.02367 11.5235 3.51014 11.4835C11.6085 10.8192 19.7014 10.0825 27.8006 9.43139C40.1996 8.43477 52.561 7.96465 64.9244 7.68334C77.9222 7.81203 90.9136 8.34481 103.883 9.25058C112.329 9.84008 120.758 10.7156 129.193 11.4814C129.187 11.5235 129.186 11.5675 129.188 11.6124C129.206 11.9539 129.466 12.2142 129.767 12.1934C130.072 12.1723 132.795 12.0842 133.297 11.9438C133.585 11.8633 133.697 11.6619 133.735 11.5757C133.836 11.3392 133.842 11.0823 133.616 10.8372C133.572 10.7902 133.488 10.7125 133.336 10.6629C133.205 10.6194 132.881 10.5644 132.293 10.5138C122.845 9.69202 113.409 8.67359 103.95 8.01238C99.7274 7.71815 95.5022 7.46237 91.2736 7.24848C97.0129 7.16336 102.754 7.06681 108.505 6.92567C108.753 6.92041 108.873 6.87476 108.895 6.86399C109.211 6.70929 109.233 6.42633 109.227 6.26597C109.225 6.20873 109.183 5.73634 108.719 5.67006C108.448 5.6311 106.49 5.55552 105.736 5.51029C102.115 5.28924 102.199 5.32407 98.4949 5.13333C90.3488 4.7151 82.2144 4.43731 74.0586 4.21299C70.8068 4.1237 67.5551 4.05194 64.3026 3.99948C73.6763 3.09313 83.2436 3.12889 92.3613 3.01627C97.0648 2.95829 101.769 2.93352 106.473 3.00176C108.579 3.03239 110.686 3.1031 112.792 3.14568C113.446 3.15882 114.099 3.18933 114.753 3.20692C114.83 3.20891 115.844 3.21825 116.011 3.21411C116.446 3.20331 116.547 2.76322 116.551 2.74558C116.569 2.66276 116.641 2.07061 116.1 1.97932C108.28 0.660076 100.081 0.970451 92.1815 0.756463C78.356 0.381872 64.4936 0.464663 50.6684 0.953552C44.5534 1.16972 38.458 1.61986 32.3516 2.06773C29.3018 2.29144 26.244 2.52851 23.2233 3.07407C22.9202 3.12888 22.2334 3.18526 21.9002 3.25025C21.7307 3.28343 21.61 3.33576 21.5547 3.37146C21.3125 3.52645 21.2642 3.75439 21.2603 3.9142C21.2579 4.03396 21.2802 4.45566 21.7792 4.58442C28.9093 6.42679 36.8223 5.23886 44.0631 5.16816C45.9167 5.15004 47.7697 5.13905 49.6241 5.13481ZM55.662 5.14495C53.5142 5.5175 51.3875 5.95977 49.2909 6.48602C54.5039 6.40526 59.717 6.39174 64.9322 6.44352C73.5359 6.24776 82.1394 6.14314 90.7534 6.01607C85.1837 5.78454 79.6124 5.60602 74.0318 5.45265C67.9107 5.28429 61.7866 5.17873 55.662 5.14495ZM85.4737 1.85056C73.8853 1.6591 62.2808 1.78332 50.7031 2.19277C44.599 2.40863 38.5165 2.85806 32.4219 3.3051C30.0238 3.48099 27.6191 3.66427 25.2331 4.00353C31.3974 4.86365 37.9661 3.98768 44.0542 3.92833C47.8991 3.89082 51.7459 3.88352 55.5915 3.90456C65.3699 2.22087 75.5845 1.96539 85.4737 1.85056Z" fill="#FEFEFE"/>
</svg>
