<svg width="120" height="13" viewBox="0 0 120 13" fill="none" xmlns="http://www.w3.org/2000/svg">
<path fill-rule="evenodd" clip-rule="evenodd" d="M71.8163 5.69777C55.8464 5.91934 39.8686 6.7983 23.9683 8.36941C16.4088 9.11651 7.62998 9.02312 0.298202 11.5702C-0.0671221 11.6984 0.00245254 12.0829 0.01036 12.1214C0.0261749 12.2001 0.0926144 12.462 0.383608 12.4748C0.415238 12.4766 0.638212 12.44 0.723613 12.4272C2.88867 12.0976 5.04582 11.7131 7.21246 11.4018C14.6929 10.3232 22.1955 9.50838 29.7091 8.79424C39.682 7.84572 49.7403 7.34031 59.74 6.94478C65.2135 6.72871 70.8183 7.01619 76.3093 6.56939C78.3257 6.55657 80.3421 6.55478 82.3585 6.5621C90.7878 6.59689 99.2076 6.96678 107.623 7.474C110.329 7.63697 112.392 7.81276 115.041 7.93179C116.047 7.97756 117.643 8.0087 118.753 8.02884C118.916 8.0325 119.332 8.03613 119.504 8.03796C119.522 8.04162 119.539 8.04163 119.558 8.04163C119.625 8.04163 119.656 8.03613 119.663 8.03613C120.039 7.97204 120.004 7.56005 119.995 7.49779C119.993 7.48497 119.936 7.13705 119.612 7.12423C119.535 7.12057 118.979 7.11694 118.766 7.11328C117.662 7.09313 116.073 7.062 115.072 7.01805C112.427 6.89903 110.365 6.72324 107.664 6.56027C99.2361 6.05305 90.8036 5.68133 82.3616 5.64654C81.3305 5.64287 80.2978 5.64104 79.2666 5.64287C79.2318 5.5385 79.1544 5.4213 78.9836 5.37003C78.8238 5.32242 77.6804 5.28031 77.2392 5.2382C73.9734 4.9269 74.0699 4.94155 70.4767 4.68702C65.0348 4.30065 64.2061 4.21272 58.546 4.04975C48.2647 3.7531 37.9787 3.77694 27.6959 3.80624C22.6193 3.82272 17.1837 4.22007 12.0297 3.47846C13.7282 3.24774 15.433 3.07927 17.1347 2.88701C22.9451 2.23146 28.7602 1.82493 34.5943 1.53927C48.5889 0.854428 62.6057 0.581611 76.5955 1.51549C73.6176 1.54845 70.6412 1.62533 67.6633 1.67477C55.5412 1.87986 43.302 1.72606 31.2052 2.78995C30.9885 2.81009 30.8257 3.02982 30.8415 3.28068C30.8573 3.53338 31.0486 3.722 31.2653 3.70368C43.3463 2.6398 55.5681 2.79543 67.6743 2.59034C72.1721 2.51526 76.6683 2.37977 81.166 2.42006C82.7095 2.43471 84.2531 2.50064 85.7966 2.52261C86.1018 2.52811 86.8879 2.59769 87.0001 2.56839C87.2484 2.5043 87.3022 2.29187 87.318 2.1875C87.3259 2.12524 87.3512 1.76634 86.9716 1.63816C84.3812 0.762879 79.6003 0.803164 77.0826 0.631037C62.9204 -0.339464 48.7297 -0.068463 34.5611 0.623705C28.7128 0.911193 22.8834 1.31956 17.0572 1.97694C15.0219 2.20583 12.9817 2.40359 10.9543 2.70756C10.6269 2.757 9.89151 2.82843 9.53568 2.9035C9.38702 2.93463 9.27947 2.97855 9.23203 3.00968C9.04699 3.13053 9.01378 3.30632 9.01378 3.42535C9.0122 3.5169 9.04541 3.83918 9.43288 3.92708C15.3366 5.26564 21.7606 4.74012 27.6975 4.7218C37.974 4.69251 48.2521 4.66867 58.527 4.96531C64.1729 5.12829 64.9985 5.21439 70.4293 5.60076C70.9654 5.63738 71.4193 5.6703 71.8163 5.69777Z" fill="#FEFEFE"/>
</svg>
